<?xml version="1.0" encoding="UTF-8" standalone="no"?>
<svg width="238px" height="55px" viewBox="0 0 238 55" version="1.1" xmlns="http://www.w3.org/2000/svg" xmlns:xlink="http://www.w3.org/1999/xlink" xmlns:sketch="http://www.bohemiancoding.com/sketch/ns">
    <title>velocity_logo 2</title>
    <description>Created with Sketch (http://www.bohemiancoding.com/sketch)</description>
    <defs></defs>
    <g id="Page-1" stroke="none" stroke-width="1" fill="none" fill-rule="evenodd" sketch:type="MSPage">
        <path d="M106.5,50 C118.926408,50 129,39.9264075 129,27.5 C129,15.0735925 118.926408,5 106.5,5 C94.0735925,5 84,15.0735925 84,27.5 C84,39.9264075 94.0735925,50 106.5,50 L106.5,50 Z M106.5,42.6530612 C114.949957,42.6530612 121.8,35.868805 121.8,27.5 C121.8,19.131195 114.949957,12.3469388 106.5,12.3469388 C98.0500429,12.3469388 91.2,19.131195 91.2,27.5 C91.2,35.868805 98.0500429,42.6530612 106.5,42.6530612 L106.5,42.6530612 Z" id="Oval-2-copy" fill-opacity="0.5" fill="#4A90E2" sketch:type="MSShapeGroup"></path>
        <circle id="Oval-1-copy" fill="#4990E2" sketch:type="MSShapeGroup" cx="106.5" cy="27.5" r="7.5"></circle>
        <path d="M9.8,13.44 L15,13.44 L22.16,36.04 L22.24,36.04 L29.56,13.44 L34.64,13.44 L24.88,42 L19.32,42 L9.8,13.44 Z M40.48,13.44 L61.04,13.44 L61.04,17.76 L45.48,17.76 L45.48,25.24 L59.88,25.24 L59.88,29.32 L45.48,29.32 L45.48,37.68 L61.32,37.68 L61.32,42 L40.48,42 L40.48,13.44 Z M68.68,13.44 L73.68,13.44 L73.68,37.68 L88.2,37.68 L88.2,42 L68.68,42 L68.68,13.44 Z M147.32,22.52 C147.106666,21.6933292 146.813335,20.9333368 146.44,20.24 C146.066665,19.5466632 145.58667,18.9466692 145,18.44 C144.41333,17.9333308 143.726671,17.5400014 142.94,17.26 C142.153329,16.9799986 141.240005,16.84 140.2,16.84 C138.679992,16.84 137.366672,17.1466636 136.26,17.76 C135.153328,18.3733364 134.253337,19.1933282 133.56,20.22 C132.866663,21.2466718 132.353335,22.4133268 132.02,23.72 C131.686665,25.0266732 131.52,26.3599932 131.52,27.72 C131.52,29.0800068 131.686665,30.4133268 132.02,31.72 C132.353335,33.0266732 132.866663,34.1933282 133.56,35.22 C134.253337,36.2466718 135.153328,37.0666636 136.26,37.68 C137.366672,38.2933364 138.679992,38.6 140.2,38.6 C141.320006,38.6 142.306662,38.4066686 143.16,38.02 C144.013338,37.6333314 144.746664,37.1000034 145.36,36.42 C145.973336,35.7399966 146.453332,34.9466712 146.8,34.04 C147.146668,33.1333288 147.373333,32.1600052 147.48,31.12 L152.36,31.12 C152.253333,32.8266752 151.88667,34.3866596 151.26,35.8 C150.63333,37.2133404 149.786672,38.4333282 148.72,39.46 C147.653328,40.4866718 146.400007,41.2799972 144.96,41.84 C143.519993,42.4000028 141.933342,42.68 140.2,42.68 C138.066656,42.68 136.153342,42.2866706 134.46,41.5 C132.766658,40.7133294 131.333339,39.6400068 130.16,38.28 C128.986661,36.9199932 128.08667,35.3333424 127.46,33.52 C126.83333,31.7066576 126.52,29.7733436 126.52,27.72 C126.52,25.6933232 126.83333,23.7733424 127.46,21.96 C128.08667,20.1466576 128.986661,18.5600068 130.16,17.2 C131.333339,15.8399932 132.766658,14.760004 134.46,13.96 C136.153342,13.159996 138.066656,12.76 140.2,12.76 C141.800008,12.76 143.30666,12.9799978 144.72,13.42 C146.13334,13.8600022 147.379995,14.4999958 148.46,15.34 C149.540005,16.1800042 150.41333,17.199994 151.08,18.4 C151.74667,19.600006 152.159999,20.9733256 152.32,22.52 L147.32,22.52 Z M159.92,13.44 L164.92,13.44 L164.92,42 L159.92,42 L159.92,13.44 Z M171.32,13.44 L194.44,13.44 L194.44,17.76 L185.36,17.76 L185.36,42 L180.36,42 L180.36,17.76 L171.32,17.76 L171.32,13.44 Z M208.2,30.8 L197.48,13.44 L203.28,13.44 L210.84,26.24 L218.28,13.44 L223.88,13.44 L213.2,30.8 L213.2,42 L208.2,42 L208.2,30.8 Z" id="VELOCITY" fill="#000000" sketch:type="MSShapeGroup"></path>
    </g>
</svg>