<?xml version="1.0" encoding="UTF-8" standalone="no"?>
<svg width="158px" height="193px" viewBox="0 0 158 193" version="1.1" xmlns="http://www.w3.org/2000/svg" xmlns:xlink="http://www.w3.org/1999/xlink" xmlns:sketch="http://www.bohemiancoding.com/sketch/ns">
    <!-- Generator: Sketch 3.2.2 (9983) - http://www.bohemiancoding.com/sketch -->
    <title>Group</title>
    <desc>Created with Sketch.</desc>
    <defs></defs>
    <g id="Page-1" stroke="none" stroke-width="1" fill="none" fill-rule="evenodd" sketch:type="MSPage">
        <g id="Group" sketch:type="MSLayerGroup" fill="#000000">
            <path d="M66.41796,161.89268 C64.37094,161.89268 62.06232,161.6616 59.4594,161.1166 C58.37594,160.88988 57.68052,159.82822 57.90724,158.74476 C58.13396,157.6613 59.19562,156.96806 60.27908,157.1926 C66.93244,158.58344 75.00716,158.0537 77.71908,152.39224 C78.58018,150.59156 78.29896,149.2465 78.04608,149.03286 C78.0548,149.04376 77.99812,149.0394 77.90002,149.0612 C69.57242,150.74634 60.0153,142.1615 59.612,141.79526 C58.79232,141.0497 58.73346,139.78312 59.47684,138.96344 C60.2224,138.14594 61.48898,138.0849 62.30648,138.82828 C64.63908,140.94288 71.8418,146.20104 77.10214,145.13284 C78.84832,144.77968 80.46152,145.42496 81.41636,146.8594 C82.87042,149.04158 82.4911,152.62768 80.49204,155.58376 C79.06196,157.70054 75.1227,161.8905 66.41796,161.89268 L66.41796,161.89268 Z" id="Shape" sketch:type="MSShapeGroup"></path>
            <path d="M88.53842,122.10332 C88.06754,122.10332 87.6468,121.7676 87.55524,121.288 C87.28928,119.87754 86.62002,118.98374 85.51258,118.55646 C83.00122,117.58636 78.86358,119.18866 76.8449,120.71684 C76.40454,121.05256 75.7767,120.96318 75.44098,120.52282 C75.10744,120.08246 75.19464,119.45244 75.635,119.1189 C78.00466,117.32476 82.85952,115.38456 86.23416,116.68602 C87.45932,117.15908 89.02674,118.27524 89.52596,120.91522 C89.62842,121.45804 89.2709,121.98342 88.72808,122.08588 C88.66268,122.09896 88.60164,122.10332 88.53842,122.10332 L88.53842,122.10332 Z" id="Shape" sketch:type="MSShapeGroup"></path>
            <path d="M58.76398,96.37496 C58.70076,96.36188 58.63754,96.35534 58.57214,96.34662 C59.12804,95.72096 59.4267,95.26534 59.4267,95.26534 C59.4267,95.26534 58.02714,92.83246 56.778,95.05388 C55.2738,97.72656 50.21838,99.67548 50.21838,99.67548 C51.91878,100.04172 53.44042,99.76704 54.73534,99.21332 C54.6089,99.52724 54.50426,99.8586 54.42796,100.2074 C53.87642,102.7253 54.92064,105.09496 56.76056,105.49826 C58.60048,105.90156 60.54068,104.18808 61.0944,101.67018 C61.64812,99.14792 60.6039,96.77826 58.76398,96.37496 L58.76398,96.37496 Z" id="Shape" sketch:type="MSShapeGroup"></path>
            <path d="M116.75416,106.33756 C116.75416,106.33756 112.04972,103.6518 110.96408,100.7851 C110.06156,98.40018 108.3132,100.59762 108.3132,100.59762 C108.3132,100.59762 108.53992,101.09466 108.99554,101.79662 C108.93232,101.79662 108.8691,101.79226 108.8037,101.79662 C106.92236,101.92088 105.5337,104.10524 105.70374,106.67764 C105.8716,109.25004 107.53276,111.2382 109.4141,111.11394 C111.29326,110.99186 112.68192,108.80532 112.51406,106.23292 C112.49008,105.87758 112.43558,105.53314 112.35928,105.20396 C113.5561,105.94516 115.01888,106.44438 116.75416,106.33756 L116.75416,106.33756 Z" id="Shape" sketch:type="MSShapeGroup"></path>
            <path d="M49.01284,119.83612 L49.01284,119.83612 C47.5566,119.83612 46.19192,119.3042 45.26542,118.37552 C43.29906,116.4048 42.0957,113.0149 44.1013,110.23104 C47.81166,105.08406 56.25262,104.8944 56.60796,104.88786 C56.91316,104.87478 57.19002,105.06444 57.30992,105.34348 C57.42982,105.62252 57.36878,105.94734 57.15514,106.16534 C57.13116,106.18932 54.75714,108.6331 53.9222,111.32976 C53.73472,111.93362 53.80884,112.677 53.88732,113.4618 C54.0421,115.02268 54.23612,116.96288 52.38094,118.6393 C51.54382,119.40012 50.31648,119.83612 49.01284,119.83612 L49.01284,119.83612 Z M54.86832,106.54248 C52.31336,106.86948 47.63726,107.89844 45.3221,111.10958 C43.8288,113.18058 44.79672,115.77696 46.32926,117.31168 C46.97672,117.95914 47.95336,118.33192 49.01284,118.33192 C49.94806,118.33192 50.80916,118.03762 51.37596,117.52532 C52.6687,116.35684 52.54226,115.0859 52.39402,113.61222 C52.30464,112.71188 52.2109,111.78102 52.48776,110.88504 C53.0175,109.18246 54.04428,107.61286 54.86832,106.54248 L54.86832,106.54248 Z" id="Shape" sketch:type="MSShapeGroup"></path>
            <path d="M114.99054,118.26652 C114.45862,118.26652 113.96812,118.13354 113.567,117.88284 C112.37236,117.1351 112.28952,116.04946 112.22412,115.17746 C112.19142,114.75672 112.16308,114.35996 112.01266,114.07002 C111.31724,112.71624 109.8283,111.64804 109.81522,111.63714 C109.64954,111.51942 109.57106,111.31232 109.61902,111.11394 C109.6648,110.91556 109.82612,110.76514 110.02668,110.73244 C110.05502,110.72808 110.7548,110.6169 111.75106,110.6169 C113.44056,110.6169 115.7797,110.933 117.3275,112.4372 C118.70744,113.7779 118.37826,115.7617 117.48882,117.037 C116.95908,117.79564 116.00206,118.26652 114.99054,118.26652 L114.99054,118.26652 Z M111.35212,111.62624 C111.87314,112.12328 112.49444,112.81652 112.90428,113.61004 C113.14626,114.08092 113.1855,114.59758 113.22256,115.09898 C113.28142,115.87942 113.33374,116.55304 114.09892,117.03264 C114.3409,117.18306 114.64828,117.26372 114.99054,117.26372 C115.66852,117.26372 116.32688,116.9498 116.66478,116.46366 C117.32096,115.52408 117.5891,114.08964 116.62772,113.1566 C115.3219,111.88784 113.25308,111.6197 111.74888,111.6197 C111.61154,111.6197 111.47856,111.62188 111.35212,111.62624 L111.35212,111.62624 Z" id="Shape" sketch:type="MSShapeGroup"></path>
            <path d="M125.317427,55.2928512 C164.643801,22.4062397 157.323467,2.6794967 156.933601,1.71960553 C156.6265,0.964317016 155.892507,0.4724 155.080104,0.4724 L155.049612,0.4724 C133.813893,0.794540347 116.509504,11.9127356 105.009546,32.6254892 C103.855194,34.7041651 102.818455,36.7741345 101.881906,38.8071013 C98.81525,37.7231425 95.4741635,36.8329033 91.8281539,36.2103889 C88.145118,35.5813446 84.4490139,35.2635575 80.8400306,35.2635575 C71.8752902,35.2635575 63.7948269,37.1702801 56.7380341,40.3155017 L56.7380341,40.3155017 C49.8337029,25.3729782 38.8085533,16.2877497 29.5955183,10.9659041 C16.1592977,3.20406308 3.91227744,1.61512758 3.39826414,1.55200549 C2.4530024,1.43446779 1.56001319,1.99603678 1.25509005,2.89498247 C-1.41952153,10.7591249 5.8572515,22.9982814 22.8850311,39.2707222 C28.3475114,44.4902665 33.9798775,49.3223717 38.5733268,53.0922844 C33.2850883,58.6078495 29.4321666,64.8286408 27.2345419,70.8905385 C22.105299,85.0298878 23.1790641,98.2485252 30.3360459,109.114232 C34.1780775,114.945408 39.6884743,119.871108 46.3750033,123.651903 C43.8746335,129.339422 41.496233,136.282852 39.7167886,143.430885 C38.9087423,146.678408 38.0288212,150.770461 37.3754145,155.280426 L37.3754145,155.280426 C37.2055287,155.25866 37.033465,155.23907 36.8570451,155.23907 C36.0925593,155.23907 35.3128272,155.43279 34.5309172,155.815876 C33.7490071,155.43279 32.967097,155.23907 32.2047892,155.23907 C30.2990195,155.23907 28.78965,156.449273 28.1471333,158.440884 C26.7793352,158.878386 25.7709108,159.727269 25.2721437,160.872173 C24.7559524,162.06061 24.8474293,163.444943 25.5204382,164.820569 C24.8474293,166.198372 24.7559524,167.582705 25.2721437,168.768965 C25.7687328,169.913869 26.7793352,170.762753 28.1471333,171.200254 C28.7874719,173.191865 30.2990195,174.402068 32.2047892,174.402068 C32.969275,174.402068 33.7490071,174.208348 34.5309172,173.825262 C35.2409525,174.173522 35.9488098,174.356359 36.6435989,174.389008 C37.1184078,179.477955 38.2596916,184.427598 40.4006877,188.765609 C40.5095888,188.987625 40.6642284,189.183521 40.8515383,189.344591 C42.8466069,191.055418 44.9680008,191.923891 47.1525573,191.923891 C53.0462861,191.923891 57.4567815,185.533323 59.2144457,182.509992 C62.5794904,183.829026 70.8254834,186.656461 79.7357733,186.656461 C85.2439921,186.656461 90.0813799,185.568149 94.1521039,183.415468 C95.5264361,186.693463 98.7564434,192.470223 104.428014,192.4724 L104.428014,192.4724 C105.656419,192.4724 106.924028,192.191616 108.193815,191.636576 C111.946547,189.997579 114.314058,183.82032 115.231005,173.274577 C115.681856,168.087682 115.734128,162.160735 115.424849,156.003065 L115.424849,156.003065 C131.563996,150.043469 133.5852,141.498043 133.687568,138.017622 C133.787757,134.615558 132.278387,131.694529 129.934835,130.747698 C128.327454,130.096887 126.632953,130.514799 125.406726,131.859952 C122.762607,134.761392 117.154199,134.815808 112.902699,134.265122 C112.765484,133.520717 112.623912,132.778488 112.475807,132.047142 C112.179596,130.584451 111.874673,129.195765 111.561037,127.861494 L111.561037,127.861494 C114.479587,126.742709 117.160733,125.417145 119.578338,123.873919 C130.464094,116.917429 136.362179,105.65993 137.109241,90.4105023 C137.653746,79.3118967 134.060009,67.4405895 127.249333,57.8416779 C126.659089,57.0102075 126.014394,56.1569709 125.317427,55.2928512 L125.317427,55.2928512 Z M36.4867813,172.321215 C36.0337526,172.25374 35.5458756,172.07308 35.0558206,171.781413 C34.8946469,171.685641 34.711693,171.635579 34.5309172,171.635579 C34.3501413,171.635579 34.1671874,171.683465 34.0038357,171.781413 C33.3765652,172.155792 32.7558288,172.353865 32.2026111,172.353865 C31.0939977,172.353865 30.2859514,171.55069 29.9832063,170.148945 C29.8982634,169.754976 29.5911622,169.448072 29.1969402,169.363183 C28.1776256,169.143344 27.4501661,168.642721 27.149599,167.952731 C26.8381418,167.236622 26.9840693,166.30938 27.5612453,165.345136 C27.7550893,165.020819 27.7550893,164.618143 27.5612453,164.293826 C26.9840693,163.329582 26.8381418,162.404517 27.149599,161.686231 C27.4501661,160.996241 28.1754476,160.495617 29.1969402,160.275778 C29.5911622,160.19089 29.8982634,159.883986 29.9832063,159.490017 C30.2859514,158.088271 31.0939977,157.285097 32.2026111,157.285097 C32.7536508,157.285097 33.3765652,157.48317 34.0038357,157.857549 C34.3283611,158.051269 34.7312952,158.051269 35.0558206,157.857549 C35.683091,157.48317 36.3060055,157.285097 36.8570451,157.285097 C36.93981,157.285097 37.0182188,157.298157 37.0988056,157.306863 L37.0988056,157.306863 C36.4976714,162.0802 36.1862142,167.238798 36.4867813,172.321215 L36.4867813,172.321215 Z M115.296346,153.824265 C115.320304,154.192114 115.339906,154.557787 115.361687,154.92346 C115.339906,154.557787 115.318126,154.192114 115.296346,153.824265 L115.296346,153.824265 Z M128.364481,134.55026 C128.403685,134.506727 128.434177,134.480608 128.455958,134.463195 C128.747813,134.598145 129.566749,135.453559 129.673472,137.314572 C129.919589,141.572049 126.158144,147.453287 115.154774,151.813064 L115.154774,151.813064 C114.815003,147.324866 114.294456,142.782251 113.599666,138.363705 C114.172486,138.420297 114.767086,138.468183 115.379111,138.498656 C121.333824,138.7925 125.705115,137.469112 128.364481,134.55026 L128.364481,134.55026 Z M113.279497,136.40692 C113.255539,136.269793 113.231581,136.134842 113.207622,135.997715 C113.231581,136.134842 113.255539,136.269793 113.279497,136.40692 L113.279497,136.40692 Z M153.68617,7.64655259 C153.588159,10.3433897 152.867233,14.7945857 149.981354,20.6801769 C145.285537,30.259499 136.917575,39.6516314 127.410507,48.1600545 C125.519983,49.476912 123.714403,50.6392292 122.074352,51.6295931 C122.163651,51.7210113 122.248594,51.8124295 122.335715,51.9038477 C119.401918,48.8478676 115.740663,45.789711 111.221266,43.138583 C111.280073,43.173409 111.341057,43.2060583 111.399864,43.2408843 C116.383179,30.8580706 126.495737,22.034037 134.887658,16.4879991 C142.425794,11.5057069 149.713457,8.35830863 153.699238,6.82378873 C153.699238,7.08716023 153.69706,7.35923823 153.68617,7.64655259 L153.68617,7.64655259 Z M108.509628,34.5692144 C119.138378,15.4279833 134.275634,5.32409482 153.52064,4.52092058 C153.53153,4.59057254 153.54242,4.66457776 153.55331,4.7407596 C149.619802,6.22304052 141.859508,9.48797647 133.824783,14.7924091 C122.091776,22.5390138 113.880631,31.9028501 109.6422,42.2483438 C109.714074,42.287523 109.781593,42.3288789 109.853468,42.3680581 C108.511806,41.6345358 107.100447,40.9358395 105.612858,40.285029 C106.486245,38.397896 107.446753,36.4846435 108.509628,34.5692144 L108.509628,34.5692144 Z M25.6271613,36.3540461 C11.5789165,22.9242762 4.26729511,12.2131097 4.7225018,5.83342483 C8.55146528,6.56912373 17.8995377,8.80886979 27.7180629,14.5072713 C39.4075094,21.2918082 47.9235772,30.5163406 53.1791454,42.0437411 C51.0838878,43.155996 49.0953533,44.3836119 47.2135419,45.7004694 C44.3211281,37.8276205 37.2251309,29.5129169 26.0213834,20.8956627 C15.7846779,13.0206372 5.58064265,7.69008507 4.74646005,7.25911352 C4.81833479,8.05358127 4.98822054,8.90246462 5.26047335,9.80358694 C11.9687825,13.4668451 39.457604,29.3692598 45.5146844,46.9302619 C44.0967918,47.9989843 42.7442398,49.1221223 41.4613846,50.2844395 C36.8657572,46.5232332 31.1549823,41.6388891 25.6271613,36.3540461 L25.6271613,36.3540461 Z M111.576284,172.952436 C110.696362,183.071561 108.492204,187.503167 106.72365,188.275869 C105.919959,188.626305 105.144583,188.804789 104.423658,188.804789 L104.423658,188.804789 C99.5078611,188.804789 96.8985902,180.294189 96.874632,180.209301 C96.7134583,179.649908 96.295278,179.199347 95.7507724,178.996921 C95.5438603,178.920739 95.328236,178.883737 95.1147898,178.883737 C94.7619502,178.883737 94.4112886,178.986038 94.1085435,179.184111 C90.2686899,181.708994 85.431302,182.986673 79.7335952,182.986673 C69.1701863,182.986673 59.24276,178.555066 59.1447489,178.511534 C58.2386916,178.100152 57.1649265,178.489768 56.7358561,179.388713 C55.5531899,181.854828 51.5282044,188.258456 47.1525573,188.258456 C45.959001,188.258456 44.7393084,187.766539 43.5196158,186.795765 C40.7905537,181.045124 37.3471002,168.111625 43.2756773,144.312418 C45.0681898,137.116499 47.3529354,130.560508 49.6267908,125.347494 L49.6267908,125.347494 C57.3609486,129.093463 66.421522,131.418098 76.1725285,131.99055 C78.8667423,132.149443 81.5086835,132.229979 84.0264775,132.229979 C93.1828839,132.229979 101.221965,131.163433 108.078379,129.058637 C108.359344,130.26231 108.627241,131.496456 108.884248,132.765428 C111.550147,145.981889 112.58253,161.379327 111.576284,172.952436 L111.576284,172.952436 Z M133.108214,90.2102529 C132.428671,104.090584 127.149144,114.279361 117.419918,120.497975 C109.391727,125.628278 98.1553092,128.229344 84.0242995,128.229344 C81.5849143,128.229344 79.0213819,128.150985 76.4055769,127.996445 C57.6223112,126.892897 41.6508726,119.009165 33.6814884,106.911489 C27.2476101,97.1428002 26.3197725,85.1583086 31.0003427,72.2531051 C36.7612121,56.3659268 54.8148403,39.2663689 80.8378526,39.2663689 C84.2203215,39.2663689 87.6920893,39.566743 91.150789,40.1566081 C108.681692,43.1472895 118.678815,52.6809024 123.980121,60.1510759 C130.28114,69.0360549 133.609159,79.9910033 133.108214,90.2102529 L133.108214,90.2102529 Z" id="Shape" sketch:type="MSShapeGroup"></path>
        </g>
    </g>
</svg>