<?xml version="1.0" encoding="UTF-8" standalone="no"?>
<svg width="202px" height="219px" viewBox="0 0 202 219" version="1.1" xmlns="http://www.w3.org/2000/svg" xmlns:xlink="http://www.w3.org/1999/xlink" xmlns:sketch="http://www.bohemiancoding.com/sketch/ns">
    <!-- Generator: Sketch 3.2.2 (9983) - http://www.bohemiancoding.com/sketch -->
    <title>Shape</title>
    <desc>Created with Sketch.</desc>
    <defs></defs>
    <g id="Page-1" stroke="none" stroke-width="1" fill="none" fill-rule="evenodd" sketch:type="MSPage">
        <path d="M34,177 C34,174.197917 33.1588542,172.205729 31,171 C29.7942708,168.841146 27.8020833,168 26,168 C23.1979167,168 21.2057292,168.841146 20,171 C17.8411458,172.205729 17,174.197917 17,177 C17,178.802083 17.8411458,180.794271 20,182 C21.2057292,184.158854 23.1979167,185 26,185 C27.8020833,185 29.7942708,184.158854 31,182 C33.1588542,180.794271 34,178.802083 34,177 L34,177 Z M185,101 C185,96.6235795 183.286133,92.7037169 180,89 C176.430664,85.9589252 172.519531,84.2727273 168,84 L122,84 C121.71875,79.1922348 123.828125,72.2065578 128,63 C132.265625,54.4248343 134.375,47.3953598 134,42 C134.375,33.6429924 132.96875,27.2923769 130,23 C127.34375,19.0584754 121.71875,17 113,17 C110.996094,19.2774621 109.326172,23.0002367 108,28 C107.216797,33.336411 105.876465,38.8329782 104,45 C102.624512,50.4830729 100.009766,55.2788826 96,59 C94.4726562,61.0601326 91.0888672,65.0456913 86,71 C85.9033203,71.4401042 84.8925781,72.7540246 83,75 C81.5527344,77.1337595 80.168457,78.9294508 79,80 C77.9711914,81.7324811 76.4550781,83.5938684 75,86 C72.5878906,88.2363873 70.8300781,90.1634706 69,92 C67.6660156,93.229285 65.9741211,94.7840909 64,96 C62.3706055,97.9375 60.612793,99.1200284 59,100 C57.1850586,100.696733 55.625,101.090909 54,101 L50,101 L50,185 L54,185 C55.3613281,185.181818 56.7456055,185.31321 58,186 C59.9975586,185.838778 61.4477539,186.123461 63,186 C63.996582,186.736624 65.6665039,187.218395 68,188 C69.7973633,188.532315 71.3354492,189.035985 72,189 C73.3569336,189.736742 74.9169922,190.284209 77,191 C79.1357422,191.773319 80.4101563,192.233191 81,192 C99.3945313,198.802794 114.423828,202 126,202 L142,202 C158.764648,202 167.202148,194.685843 167,180 C167.202148,177.780066 166.982422,175.327415 167,173 C169.179688,171.298059 171.26709,168.998698 173,166 C174.343262,162.604285 175.112305,159.38518 175,156 C175.112305,152.903172 174.321289,149.881155 173,147 C177.397461,142.69839 179.726563,137.486506 180,131 C179.726563,129.252604 179.287109,126.821851 178,124 C177.529297,121.478575 176.430664,119.398201 175,118 C177.924805,117.821496 180.275879,115.763021 182,112 C184.055176,107.704309 185,104.156723 185,101 L185,101 Z M202,101 C202,108.754207 199.851997,115.905048 196,122 C196.345052,125.293269 196.739583,128.320313 197,131 C196.739583,138.234976 195.073785,144.552284 192,150 C192.005208,152.273438 192.136719,154.159856 192,156 C192.136719,164.951923 189.50651,172.760817 184,180 C184.333767,191.71274 180.607639,201.342248 173,208 C165.527778,215.46845 155.576823,219 143,219 L126,219 C117.833333,219 109.526259,218.012921 101,216 C93.1312934,214.064603 83.640625,211.191106 73,207 C62.6866319,203.908654 56.6371528,202.153846 55,202 L17,202 C12.1866319,202.153846 8.21940104,200.508714 5,197 C1.64388021,193.928185 -5.58206519e-16,189.957933 0,185 L0,101 C0,96.4266827 1.64388021,92.4564303 5,89 C8.21940104,85.8759014 12.1866319,84.2307692 17,84 L53,84 C56.0234375,82.125 62.0290799,75.3251202 71,64 C75.969184,57.250601 80.6597222,51.6352163 85,47 C87.0598958,44.7914663 88.6161024,41.0405649 90,36 C90.6325955,30.4239784 91.9696181,24.874399 94,19 C95.3012153,13.2926683 98.0190972,8.5546875 102,5 C105.208333,1.62319712 109.153646,0 114,0 C120.989583,0 127.608941,1.42578125 133,4 C139.357205,7.12890625 143.828559,11.5817308 147,18 C149.965712,23.6899038 151.5,31.8497596 152,42 C151.5,50.2752404 149.395833,58.6983173 145,67 L168,67 C177.451389,67.3846154 185.342014,70.71875 192,77 C198.668403,84.0552885 202,91.9080529 202,101 L202,101 Z" id="Shape" fill="#000000" sketch:type="MSShapeGroup"></path>
    </g>
</svg>